<svg width="211" height="28" viewBox="0 0 211 28" fill="none" xmlns="http://www.w3.org/2000/svg">
<path d="M0.761364 27V7.36364H3.67614V10.4318H3.93182C4.34091 9.38352 5.00142 8.5696 5.91335 7.99006C6.82528 7.40199 7.92045 7.10795 9.19886 7.10795C10.4943 7.10795 11.5724 7.40199 12.4332 7.99006C13.3026 8.5696 13.9801 9.38352 14.4659 10.4318H14.6705C15.1733 9.41761 15.9276 8.61222 16.9332 8.01562C17.9389 7.41051 19.1449 7.10795 20.5511 7.10795C22.3068 7.10795 23.7429 7.65767 24.8594 8.7571C25.9759 9.84801 26.5341 11.5483 26.5341 13.858V27H23.517V13.858C23.517 12.4091 23.1207 11.3736 22.3281 10.7514C21.5355 10.1293 20.6023 9.81818 19.5284 9.81818C18.1477 9.81818 17.0781 10.2358 16.3196 11.071C15.5611 11.8977 15.1818 12.946 15.1818 14.2159V27H12.1136V13.5511C12.1136 12.4347 11.7514 11.5355 11.027 10.8537C10.3026 10.1634 9.36932 9.81818 8.22727 9.81818C7.44318 9.81818 6.71023 10.027 6.02841 10.4446C5.35511 10.8622 4.80966 11.4418 4.39205 12.1832C3.98295 12.9162 3.77841 13.7642 3.77841 14.7273V27H0.761364ZM37.8288 27.4602C36.5845 27.4602 35.4553 27.2259 34.4411 26.7571C33.4268 26.2798 32.6214 25.5938 32.0249 24.6989C31.4283 23.7955 31.13 22.7045 31.13 21.4261C31.13 20.3011 31.3516 19.3892 31.7947 18.6903C32.2379 17.983 32.8303 17.429 33.5717 17.0284C34.3132 16.6278 35.1314 16.3295 36.0263 16.1335C36.9297 15.929 37.8374 15.767 38.7493 15.6477C39.9425 15.4943 40.9098 15.3793 41.6513 15.3026C42.4013 15.2173 42.9467 15.0767 43.2876 14.8807C43.6371 14.6847 43.8118 14.3437 43.8118 13.858V13.7557C43.8118 12.4943 43.4666 11.5142 42.7763 10.8153C42.0945 10.1165 41.0589 9.76705 39.6697 9.76705C38.2294 9.76705 37.1001 10.0824 36.282 10.7131C35.4638 11.3437 34.8885 12.017 34.5561 12.733L31.6925 11.7102C32.2038 10.517 32.8857 9.58807 33.7379 8.9233C34.5987 8.25 35.5362 7.78125 36.5504 7.51705C37.5732 7.24432 38.5788 7.10795 39.5675 7.10795C40.1982 7.10795 40.9226 7.18466 41.7408 7.33807C42.5675 7.48295 43.3643 7.78551 44.1314 8.24574C44.907 8.70597 45.5504 9.40057 46.0618 10.3295C46.5732 11.2585 46.8288 12.5028 46.8288 14.0625V27H43.8118V24.3409H43.6584C43.4538 24.767 43.1129 25.223 42.6357 25.7088C42.1584 26.1946 41.5234 26.608 40.7308 26.9489C39.9382 27.2898 38.9709 27.4602 37.8288 27.4602ZM38.2891 24.75C39.4822 24.75 40.4879 24.5156 41.3061 24.0469C42.1328 23.5781 42.755 22.973 43.1726 22.2315C43.5987 21.4901 43.8118 20.7102 43.8118 19.892V17.1307C43.6839 17.2841 43.4027 17.4247 42.968 17.5526C42.5419 17.6719 42.0476 17.7784 41.4851 17.8722C40.9311 17.9574 40.3899 18.0341 39.8615 18.1023C39.3416 18.1619 38.9197 18.2131 38.5959 18.2557C37.8118 18.358 37.0788 18.5241 36.397 18.7543C35.7237 18.9759 35.1783 19.3125 34.7607 19.7642C34.3516 20.2074 34.147 20.8125 34.147 21.5795C34.147 22.6278 34.5348 23.4205 35.3104 23.9574C36.0945 24.4858 37.0874 24.75 38.2891 24.75ZM60.8754 7.36364V9.92045H50.6992V7.36364H60.8754ZM53.6651 2.65909H56.6822V21.375C56.6822 22.2273 56.8058 22.8665 57.0529 23.2926C57.3086 23.7102 57.6325 23.9915 58.0245 24.1364C58.4251 24.2727 58.8469 24.3409 59.2901 24.3409C59.6225 24.3409 59.8952 24.3239 60.1083 24.2898C60.3214 24.2472 60.4918 24.2131 60.6197 24.1875L61.2333 26.8977C61.0288 26.9744 60.7433 27.0511 60.3768 27.1278C60.0103 27.2131 59.5458 27.2557 58.9833 27.2557C58.131 27.2557 57.2958 27.0724 56.4776 26.706C55.668 26.3395 54.9947 25.7812 54.4577 25.0312C53.9293 24.2812 53.6651 23.3352 53.6651 22.1932V2.65909ZM68.8526 15.1875V27H65.8356V0.818181H68.8526V10.4318H69.1083C69.5685 9.41761 70.2589 8.61222 71.1793 8.01562C72.1083 7.41051 73.3441 7.10795 74.8867 7.10795C76.2248 7.10795 77.3967 7.37642 78.4023 7.91335C79.408 8.44176 80.1879 9.25568 80.7418 10.3551C81.3043 11.446 81.5856 12.8352 81.5856 14.5227V27H78.5685V14.7273C78.5685 13.1676 78.1637 11.9616 77.354 11.1094C76.5529 10.2486 75.4407 9.81818 74.0174 9.81818C73.0288 9.81818 72.1424 10.027 71.3583 10.4446C70.5827 10.8622 69.9691 11.4716 69.5174 12.2727C69.0742 13.0739 68.8526 14.0455 68.8526 15.1875ZM95.3381 27.4091C93.446 27.4091 91.8139 26.9915 90.4418 26.1562C89.0781 25.3125 88.0256 24.1364 87.2841 22.6278C86.5511 21.1108 86.1847 19.3466 86.1847 17.3352C86.1847 15.3239 86.5511 13.5511 87.2841 12.017C88.0256 10.4744 89.0568 9.27273 90.3778 8.41193C91.7074 7.54261 93.2585 7.10795 95.0312 7.10795C96.054 7.10795 97.0639 7.27841 98.0611 7.61932C99.0582 7.96023 99.9659 8.5142 100.784 9.28125C101.602 10.0398 102.254 11.0455 102.74 12.2983C103.226 13.5511 103.469 15.0937 103.469 16.9261V18.2045H88.3324V15.5966H100.401C100.401 14.4886 100.179 13.5 99.7358 12.6307C99.3011 11.7614 98.679 11.0753 97.8693 10.5724C97.0682 10.0696 96.1222 9.81818 95.0312 9.81818C93.8295 9.81818 92.7898 10.1165 91.9119 10.7131C91.0426 11.3011 90.3736 12.0682 89.9048 13.0142C89.4361 13.9602 89.2017 14.9744 89.2017 16.0568V17.7955C89.2017 19.2784 89.4574 20.5355 89.9688 21.5668C90.4886 22.5895 91.2088 23.3693 92.1293 23.9062C93.0497 24.4347 94.1193 24.6989 95.3381 24.6989C96.1307 24.6989 96.8466 24.5881 97.4858 24.3665C98.1335 24.1364 98.6918 23.7955 99.1605 23.3438C99.6293 22.8835 99.9915 22.3125 100.247 21.6307L103.162 22.4489C102.855 23.4375 102.339 24.3068 101.615 25.0568C100.891 25.7983 99.9957 26.3778 98.9304 26.7955C97.8651 27.2045 96.6676 27.4091 95.3381 27.4091ZM120.433 18.9716V7.36364H123.45V27H120.433V23.6761H120.229C119.768 24.6733 119.053 25.5213 118.081 26.2202C117.109 26.9105 115.882 27.2557 114.399 27.2557C113.172 27.2557 112.081 26.9872 111.126 26.4503C110.172 25.9048 109.422 25.0866 108.876 23.9957C108.331 22.8963 108.058 21.5114 108.058 19.8409V7.36364H111.075V19.6364C111.075 21.0682 111.476 22.2102 112.277 23.0625C113.087 23.9148 114.118 24.3409 115.371 24.3409C116.121 24.3409 116.884 24.1491 117.659 23.7656C118.443 23.3821 119.099 22.794 119.628 22.0014C120.165 21.2088 120.433 20.1989 120.433 18.9716ZM142.885 11.7614L140.175 12.5284C140.005 12.0767 139.753 11.6378 139.421 11.2116C139.097 10.777 138.654 10.419 138.091 10.1378C137.529 9.85653 136.809 9.71591 135.931 9.71591C134.729 9.71591 133.728 9.9929 132.926 10.5469C132.134 11.0923 131.738 11.7869 131.738 12.6307C131.738 13.3807 132.01 13.973 132.556 14.4077C133.101 14.8423 133.953 15.2045 135.113 15.4943L138.027 16.2102C139.783 16.6364 141.091 17.2884 141.952 18.1662C142.813 19.0355 143.243 20.1562 143.243 21.5284C143.243 22.6534 142.919 23.6591 142.272 24.5455C141.632 25.4318 140.738 26.1307 139.587 26.642C138.436 27.1534 137.098 27.4091 135.573 27.4091C133.57 27.4091 131.912 26.9744 130.6 26.1051C129.287 25.2358 128.456 23.9659 128.107 22.2955L130.971 21.5795C131.243 22.6364 131.759 23.429 132.517 23.9574C133.284 24.4858 134.286 24.75 135.522 24.75C136.928 24.75 138.044 24.4517 138.871 23.8551C139.706 23.25 140.124 22.5256 140.124 21.6818C140.124 21 139.885 20.429 139.408 19.9688C138.931 19.5 138.198 19.1506 137.209 18.9205L133.936 18.1534C132.138 17.7273 130.817 17.0668 129.973 16.1719C129.138 15.2685 128.721 14.1392 128.721 12.7841C128.721 11.6761 129.032 10.696 129.654 9.84375C130.284 8.99148 131.141 8.32244 132.223 7.83665C133.314 7.35085 134.55 7.10795 135.931 7.10795C137.874 7.10795 139.4 7.53409 140.507 8.38636C141.624 9.23864 142.417 10.3636 142.885 11.7614ZM156.273 27H148.194V0.818181H156.631C159.171 0.818181 161.344 1.34233 163.151 2.39062C164.958 3.4304 166.343 4.92614 167.306 6.87784C168.269 8.82102 168.751 11.1477 168.751 13.858C168.751 16.5852 168.265 18.9332 167.293 20.902C166.322 22.8622 164.907 24.3707 163.049 25.4276C161.191 26.4759 158.933 27 156.273 27ZM151.364 24.1875H156.069C158.234 24.1875 160.028 23.7699 161.451 22.9347C162.874 22.0994 163.935 20.9105 164.634 19.3679C165.333 17.8253 165.683 15.9886 165.683 13.858C165.683 11.7443 165.337 9.92472 164.647 8.39915C163.957 6.86506 162.925 5.68892 161.553 4.87074C160.181 4.04403 158.472 3.63068 156.427 3.63068H151.364V24.1875ZM181.893 27.4091C180.001 27.4091 178.369 26.9915 176.996 26.1562C175.633 25.3125 174.58 24.1364 173.839 22.6278C173.106 21.1108 172.739 19.3466 172.739 17.3352C172.739 15.3239 173.106 13.5511 173.839 12.017C174.58 10.4744 175.612 9.27273 176.933 8.41193C178.262 7.54261 179.813 7.10795 181.586 7.10795C182.609 7.10795 183.619 7.27841 184.616 7.61932C185.613 7.96023 186.521 8.5142 187.339 9.28125C188.157 10.0398 188.809 11.0455 189.295 12.2983C189.781 13.5511 190.023 15.0937 190.023 16.9261V18.2045H174.887V15.5966H186.955C186.955 14.4886 186.734 13.5 186.29 12.6307C185.856 11.7614 185.234 11.0753 184.424 10.5724C183.623 10.0696 182.677 9.81818 181.586 9.81818C180.384 9.81818 179.344 10.1165 178.467 10.7131C177.597 11.3011 176.928 12.0682 176.46 13.0142C175.991 13.9602 175.756 14.9744 175.756 16.0568V17.7955C175.756 19.2784 176.012 20.5355 176.523 21.5668C177.043 22.5895 177.763 23.3693 178.684 23.9062C179.604 24.4347 180.674 24.6989 181.893 24.6989C182.685 24.6989 183.401 24.5881 184.04 24.3665C184.688 24.1364 185.246 23.7955 185.715 23.3438C186.184 22.8835 186.546 22.3125 186.802 21.6307L189.717 22.4489C189.41 23.4375 188.894 24.3068 188.17 25.0568C187.445 25.7983 186.55 26.3778 185.485 26.7955C184.42 27.2045 183.222 27.4091 181.893 27.4091ZM210.072 7.36364L202.811 27H199.743L192.481 7.36364H195.754L201.174 23.0114H201.379L206.799 7.36364H210.072Z" fill="#525252"/>
</svg>
